<!DOCTYPE svg PUBLIC "-//W3C//DTD SVG 1.1//EN" "http://www.w3.org/Graphics/SVG/1.1/DTD/svg11.dtd">
<!-- Uploaded to: SVG Repo, www.svgrepo.com, Transformed by: SVG Repo Mixer Tools -->
<svg width="64px" height="64px" viewBox="-10.88 -10.88 85.76 85.76" xmlns="http://www.w3.org/2000/svg" xmlns:xlink="http://www.w3.org/1999/xlink" aria-hidden="true" role="img" class="iconify iconify--emojione-monotone" preserveAspectRatio="xMidYMid meet" fill="#0C646D" stroke="#0C646D" transform="matrix(1, 0, 0, 1, 0, 0)rotate(0)" stroke-width="1.472">
<g id="SVGRepo_bgCarrier" stroke-width="0" transform="translate(0,0), scale(1)">
<path transform="translate(-10.88, -10.88), scale(2.68)" d="M16,30.757697079134616C17.982858962219357,30.352393711378483,20.089675644261046,29.68465091375559,21.40980238899713,28.150615105242437C22.721917851936936,26.625888700691124,21.660949373070707,23.789237392115123,23.15545242833327,22.442798305252076C24.90908917007962,20.862898521887875,28.182019071820694,22.143793791964747,29.887908580134088,20.51245503716754C31.44404037470102,19.024329287124658,32.124156727067295,16.449921516926402,31.608130080896995,14.359519423920123C31.079820474823688,12.219359580456343,29.081946284898855,10.660255670204263,27.1805168082564,9.544925611074035C25.49765395098101,8.557801159092078,22.900505448847465,9.788295858944023,21.499771487109154,8.430213958420104C19.757554807984757,6.741047419062816,21.26419109659943,2.6486644946891027,19.048043205944115,1.6600841583241124C17.105097007286666,0.7933737665190361,15.664191051801328,4.252751740537611,13.646351998946558,4.926956747130191C11.905594255095219,5.508582712049925,9.481866137871362,3.9555868620661343,8.211947461683181,5.280665290581094C6.8299495939821275,6.722691143953908,8.806040254255114,9.549969038204251,7.65286218172384,11.180777733655347C6.326193434315068,13.056934574296942,2.936118747832722,12.562542372164488,1.6952366596879713,14.496508788460009C0.5666658903063209,16.25543333677076,0.5117858057091824,18.88081517039298,1.5477732347457707,20.69581313045548C2.629567442857935,22.591062267558343,5.749805286506458,22.297286109409125,7.118177514328014,23.99722888683454C8.59874956827181,25.836558652805127,7.628120814132091,29.153501007005783,9.506964177800366,30.58359723093774C11.248823926967829,31.90942731239804,13.85530403866939,31.19608050049876,16,30.757697079134616" fill="#7ed0ec" strokewidth="0"/>
</g>
<g id="SVGRepo_tracerCarrier" stroke-linecap="round" stroke-linejoin="round"/>
<g id="SVGRepo_iconCarrier">
<path d="M28.216 35.543h7.431l-3.666-11.418z" fill="#00000"/>
<path d="M32 2C15.432 2 2 15.431 2 32c0 16.569 13.432 30 30 30s30-13.432 30-30C62 15.431 48.568 2 32 2m7.167 44.508l-1.914-5.965H26.567L24.6 46.508h-6.342l10.358-29.016h6.859l10.266 29.016h-6.574" fill="#00000"/>
</g>
</svg>